<svg xmlns="http://www.w3.org/2000/svg" viewBox="0 0 2156 604" role="img" aria-label="Dr. Giuseppe Iannone — Psicoterapeuta"><g transform="translate(63,0)"><path fill="#2E2B28" fill-rule="evenodd" d="M1263.0,340.4C1261.1,335.5 1262.0,334.0 1268.0,332.0C1275.3,329.6 1294.0,324.9 1312.0,320.9C1320.0,319.2 1328.8,317.2 1331.5,316.5C1334.2,315.7 1338.7,314.9 1341.3,314.5L1346.2,313.9L1357.2,291.2C1369.8,265.2 1388.9,226.8 1396.1,213.2C1398.8,208.2 1403.2,199.8 1405.9,194.8C1408.5,189.7 1419.0,169.3 1429.0,149.5C1448.0,112.0 1459.8,89.1 1467.0,75.5C1469.3,71.1 1475.7,58.8 1481.2,48.1L1491.2,28.7L1485.4,29.3C1474.3,30.5 1444.2,38.9 1435.8,43.1C1429.8,46.2 1428.0,45.7 1428.0,41.2C1428.0,38.1 1428.5,37.1 1430.3,36.3C1434.2,34.5 1450.2,29.3 1457.0,27.6C1462.1,26.4 1492.6,20.0 1493.7,20.0C1493.9,20.0 1495.1,18.2 1496.5,16.0C1498.3,13.1 1499.7,12.0 1501.5,12.0C1503.6,12.0 1504.0,12.5 1504.0,15.0C1504.0,18.6 1503.9,18.6 1521.9,16.4C1528.9,15.6 1536.9,15.0 1539.6,15.2C1544.1,15.5 1544.5,15.7 1544.5,18.0C1544.5,20.2 1544.0,20.5 1540.5,20.8C1538.3,20.9 1531.1,21.9 1524.5,23.0C1517.9,24.1 1510.3,25.2 1507.7,25.6C1505.1,25.9 1502.0,27.0 1500.9,27.9C1499.8,28.8 1488.7,50.0 1476.1,75.0C1463.6,100.0 1451.4,124.1 1449.0,128.5C1446.7,132.9 1441.4,143.0 1437.2,151.0C1422.3,179.9 1415.7,192.5 1414.9,193.5C1414.5,194.1 1405.4,211.8 1394.7,233.0C1370.7,280.6 1360.2,301.0 1356.2,307.8L1353.1,313.0L1355.4,313.0C1356.8,313.0 1361.2,312.4 1365.3,311.6C1377.0,309.3 1410.9,306.5 1412.1,307.7C1412.7,308.3 1409.3,309.1 1402.4,309.9C1396.5,310.6 1385.3,312.5 1377.6,314.2C1369.8,315.8 1361.0,317.6 1358.0,318.2C1351.9,319.2 1349.5,320.9 1347.1,326.0C1346.1,328.3 1344.7,329.6 1343.1,329.8C1340.8,330.2 1340.7,329.9 1341.3,326.1C1341.7,322.5 1341.6,322.0 1339.8,322.0C1333.9,322.0 1281.7,336.5 1265.3,342.7C1264.6,343.0 1263.6,342.0 1263.0,340.4ZM498.5,324.6C492.7,322.0 488.0,315.8 488.0,311.0C488.0,306.3 491.9,299.6 502.4,286.5C513.1,273.2 517.3,269.5 530.5,261.6C542.5,254.4 548.3,251.6 569.0,242.7C590.6,233.5 603.5,227.8 619.7,220.4C622.5,219.1 625.2,218.0 625.5,218.0C628.2,218.0 634.3,210.6 643.1,196.7C655.7,176.7 656.0,176.2 656.0,175.6C656.0,174.8 649.1,178.8 644.0,182.5C641.5,184.3 633.4,189.4 626.0,193.7C618.6,198.1 605.6,206.0 597.2,211.2C581.0,221.4 566.4,228.2 551.2,232.6C543.4,234.8 540.4,235.2 533.4,234.8C525.6,234.4 524.6,234.1 519.2,230.4C512.9,226.1 507.6,219.1 505.9,212.7C504.2,206.4 505.3,188.9 507.9,181.0C510.2,174.1 520.6,152.3 524.8,145.5C544.0,114.9 571.7,81.8 597.1,59.3C625.9,33.8 654.8,16.0 681.0,7.6C699.2,1.8 710.5,3.1 719.9,12.2C726.6,18.6 728.5,23.7 728.4,35.0C728.4,43.1 727.8,45.9 725.0,54.0C721.4,64.4 714.5,78.2 708.4,87.4C700.6,99.2 699.9,100.1 698.4,100.7C696.4,101.4 692.0,99.4 692.0,97.8C692.0,97.1 694.5,93.1 697.6,89.0C703.7,81.0 714.4,59.7 718.1,48.5C721.3,38.7 721.3,28.0 718.2,22.4C715.3,17.4 709.2,13.3 703.2,12.4C690.2,10.5 659.3,22.8 634.5,39.7C603.8,60.8 572.6,92.2 546.3,128.5C535.9,142.9 529.8,153.0 523.5,166.5C515.5,183.4 513.5,190.6 513.6,202.5C513.6,213.6 514.5,216.3 520.2,221.7C524.5,225.9 527.8,227.0 535.3,227.0C553.4,226.9 576.8,217.6 604.5,199.6C611.6,194.9 620.6,189.2 624.5,186.8C635.7,180.0 650.2,170.5 654.1,167.4C656.1,165.8 659.2,163.4 661.0,162.0C662.8,160.6 666.1,158.0 668.3,156.2C674.3,151.2 679.0,152.2 679.0,158.5C679.0,160.7 677.0,164.8 672.7,171.6C665.0,183.8 651.8,203.5 648.9,207.2C647.8,208.8 647.1,210.0 647.3,210.0C647.6,210.0 653.8,207.6 661.2,204.7C668.5,201.8 679.5,197.9 685.5,196.1C704.3,190.5 704.4,190.5 711.1,182.8C717.5,175.7 720.9,173.5 724.0,174.5C727.5,175.6 727.1,178.1 722.3,185.4C719.8,189.3 716.9,193.6 716.0,195.0C711.3,202.3 707.9,209.2 708.2,211.2C708.5,213.3 709.0,213.5 715.0,213.3C720.9,213.2 739.6,208.2 742.5,206.0C743.0,205.6 745.3,204.7 747.5,204.0C758.0,200.6 765.5,195.9 773.0,187.9C779.1,181.4 781.2,179.8 784.2,179.3C791.1,178.2 790.7,183.7 783.1,192.8C777.0,200.1 773.7,206.1 775.0,207.4C776.3,208.7 783.6,204.7 791.8,198.1C795.5,195.2 801.8,190.3 805.8,187.3C809.7,184.3 813.0,181.4 813.0,180.9C813.0,180.3 815.0,179.0 817.5,177.9C821.2,176.3 822.3,176.1 824.0,177.2C826.5,178.8 826.5,178.9 823.4,188.0C820.3,197.1 819.3,204.9 820.9,207.8C823.1,212.0 830.9,210.4 848.0,202.2C853.8,199.4 861.0,196.1 864.0,194.8C867.9,193.0 871.0,190.6 874.8,186.3C880.7,179.5 891.0,173.6 899.1,172.4C904.6,171.7 907.4,172.9 909.5,177.0C911.4,180.7 910.5,181.3 902.1,181.5C897.9,181.6 893.8,182.4 891.0,183.7C886.5,185.8 882.0,189.4 882.0,190.9C882.0,191.9 888.6,200.1 890.2,201.1C891.1,201.7 898.9,200.6 918.0,197.0C923.8,196.0 930.2,194.8 932.3,194.5C935.2,194.0 937.9,192.3 943.2,187.4C951.6,179.7 962.1,174.0 968.1,174.0C971.3,174.0 972.8,174.6 975.1,176.9C978.4,180.2 978.6,181.9 976.6,185.9C973.6,191.6 962.2,197.8 950.6,199.9C939.8,201.9 935.8,207.7 941.6,213.1C943.9,215.2 945.0,215.5 951.8,215.4C960.8,215.3 969.3,213.7 977.0,210.8C984.3,208.0 1008.8,197.1 1012.0,195.2C1016.5,192.4 1021.1,187.6 1024.7,182.0C1029.7,174.1 1031.9,172.0 1035.1,172.0C1040.2,172.0 1039.9,174.4 1034.0,183.5C1029.6,190.2 1029.5,190.5 1033.1,187.8C1038.1,184.1 1050.7,178.4 1056.8,177.1C1062.6,175.9 1069.4,176.9 1073.5,179.6C1076.5,181.6 1078.2,187.1 1077.4,192.2C1077.0,194.5 1077.1,196.0 1077.7,196.0C1078.3,196.0 1082.5,194.5 1087.1,192.7C1091.7,190.8 1097.8,188.7 1100.5,188.0C1107.2,186.2 1110.1,184.0 1114.3,177.7C1118.8,170.9 1120.2,169.8 1123.7,170.2C1127.3,170.6 1127.9,174.0 1125.0,177.8C1121.3,182.6 1117.9,188.2 1118.2,189.1C1118.4,189.6 1122.5,187.5 1127.5,184.5C1139.1,177.5 1146.2,175.5 1153.3,177.0C1156.2,177.6 1159.3,178.7 1160.2,179.4C1163.2,181.6 1164.8,186.8 1163.9,190.9C1162.4,197.3 1162.7,198.1 1165.8,197.4C1167.3,197.0 1169.4,196.1 1170.5,195.4C1171.6,194.7 1176.0,193.2 1180.2,192.1C1189.2,189.8 1190.5,189.2 1197.9,183.5C1210.6,173.8 1218.4,171.8 1224.7,176.6C1227.3,178.6 1228.0,179.8 1228.0,182.5C1228.0,189.9 1214.8,199.3 1202.5,200.6C1194.7,201.5 1191.0,203.3 1191.0,206.4C1191.0,209.7 1196.3,214.8 1200.6,215.6C1205.1,216.4 1219.4,215.3 1228.0,213.5C1237.7,211.4 1263.9,202.0 1277.8,195.6C1284.6,192.5 1290.3,190.0 1290.6,190.0C1290.9,190.0 1291.0,191.0 1290.8,192.2C1290.4,195.0 1271.5,204.9 1249.4,213.8C1228.2,222.4 1220.6,224.4 1209.0,224.5C1200.6,224.5 1198.8,224.2 1193.3,221.6C1186.2,218.4 1183.8,216.1 1181.5,210.6C1180.0,207.0 1180.0,206.5 1181.6,203.4C1182.6,201.6 1183.2,199.8 1182.8,199.5C1182.5,199.2 1176.9,200.9 1170.2,203.3C1161.0,206.6 1156.5,209.0 1150.9,213.2C1142.6,219.4 1134.2,223.9 1125.2,226.9C1117.0,229.7 1113.8,229.0 1110.0,223.4C1108.3,221.1 1107.0,218.7 1107.0,218.2C1107.0,217.7 1108.7,216.4 1110.8,215.5C1112.8,214.5 1115.5,212.9 1116.8,211.9C1120.0,209.4 1130.9,205.4 1140.8,203.1C1151.8,200.5 1153.7,199.2 1154.5,193.5C1155.4,188.0 1154.8,186.3 1151.5,184.8C1147.4,182.9 1140.9,185.3 1130.1,192.4C1115.0,202.4 1109.9,208.2 1101.0,225.4C1098.7,229.7 1092.5,240.9 1087.2,250.4C1081.9,259.8 1071.5,279.6 1064.0,294.5C1049.8,322.5 1048.9,323.8 1044.7,320.6C1043.0,319.3 1043.3,318.5 1048.2,306.9C1053.6,294.0 1095.7,209.5 1100.2,202.5C1101.6,200.3 1103.0,197.4 1103.5,196.1C1104.2,193.9 1104.0,193.8 1100.8,194.5C1099.0,194.9 1096.4,195.8 1095.0,196.5C1093.6,197.2 1088.6,198.9 1083.8,200.4C1077.9,202.2 1073.0,204.5 1068.8,207.5C1049.7,221.2 1037.1,228.0 1031.0,228.0C1025.7,228.0 1018.2,220.2 1019.3,216.0C1019.6,214.9 1019.5,214.0 1019.1,214.0C1017.6,214.0 1015.2,217.7 1009.8,228.5C1006.8,234.6 1002.0,243.9 999.2,249.3C993.9,259.2 988.0,270.3 978.9,287.8C964.0,316.1 960.6,321.4 956.7,321.8C955.0,322.0 953.8,321.6 953.4,320.7C953.1,319.8 955.2,314.1 958.1,307.8C963.3,296.6 985.3,253.0 992.5,239.5C994.6,235.7 997.8,229.3 999.8,225.5C1001.7,221.7 1005.3,215.7 1007.6,212.3C1010.0,208.9 1012.0,205.9 1012.0,205.6C1012.0,204.2 1008.4,205.2 1001.2,208.6C987.9,214.8 974.2,220.0 964.2,222.6C952.2,225.7 945.8,225.3 938.1,220.9C931.9,217.3 929.6,213.2 930.6,207.0C931.2,203.1 931.2,203.0 928.4,203.0C924.2,202.9 897.6,209.2 896.8,210.4C896.4,211.0 896.0,213.0 896.0,214.8C896.0,228.6 863.6,238.3 855.6,226.9C853.7,224.1 853.6,220.1 855.4,217.8C857.0,215.6 866.5,211.3 874.5,209.1C881.7,207.1 882.3,205.6 878.0,200.6C874.1,196.2 872.1,196.1 866.2,200.1C859.4,204.7 837.4,214.9 830.4,216.8C824.7,218.3 824.0,218.3 819.5,216.5C812.1,213.7 810.4,211.3 809.7,202.9C809.4,199.0 808.9,195.5 808.6,195.3C808.3,195.0 805.5,197.1 802.3,199.9C792.8,208.5 778.2,217.5 771.4,219.0C767.3,219.9 761.6,217.3 761.2,214.3C761.0,213.0 761.6,211.0 762.4,209.8C763.8,207.9 764.6,204.0 763.7,204.0C763.5,204.0 760.9,205.2 757.9,206.6C740.5,215.0 721.6,221.8 712.9,222.7L706.9,223.3L702.5,218.6C697.0,213.0 696.8,210.3 701.0,202.0C702.6,198.8 703.6,195.9 703.1,195.6C702.1,194.9 697.1,196.6 687.3,200.8C683.6,202.4 671.5,207.5 660.5,212.0C649.5,216.6 639.2,221.3 637.6,222.6C636.0,223.8 631.0,229.6 626.6,235.3C604.0,264.8 577.9,290.7 558.0,303.6C538.1,316.5 519.8,324.8 507.5,326.4C504.6,326.8 502.1,326.3 498.5,324.6ZM516.0,318.0C525.7,316.2 546.7,304.8 561.9,293.2C575.0,283.2 603.4,252.7 618.3,232.8C621.6,228.4 621.6,228.0 618.9,228.0C616.2,228.0 587.7,237.6 569.6,244.7C535.7,257.8 523.8,266.2 507.8,288.0C495.6,304.7 493.6,310.8 498.9,316.1C502.2,319.4 506.4,319.8 516.0,318.0ZM9.5,287.9C0.6,282.7 2.9,273.9 16.5,261.3C27.5,251.1 54.0,233.8 66.0,229.0C72.6,226.4 76.5,222.5 80.0,214.8C81.8,210.8 86.4,201.1 90.1,193.2C93.9,185.3 97.0,178.7 97.0,178.6C97.0,178.4 101.3,170.5 106.5,160.9C111.7,151.4 116.0,143.5 116.0,143.3C116.0,142.3 148.1,85.2 151.7,79.7C157.0,71.8 161.0,68.8 161.0,72.7C161.0,76.7 147.8,104.7 135.3,127.0C131.5,133.9 127.6,140.8 126.8,142.5C125.9,144.2 122.9,149.8 120.1,155.0C109.7,174.1 88.9,217.3 89.8,218.2C90.3,218.7 92.2,218.4 94.3,217.5C104.9,213.1 136.6,205.6 139.8,206.7C142.0,207.6 141.1,208.7 136.8,210.0C131.6,211.6 96.5,224.3 89.3,227.2C81.6,230.4 79.4,233.2 69.1,253.5C65.9,259.9 64.1,262.0 61.8,262.0C58.4,262.0 59.1,255.6 63.6,246.2C65.6,242.2 67.0,238.4 66.8,237.9C66.3,236.5 53.4,243.3 42.2,250.8C31.7,257.8 16.4,272.4 15.4,276.3C14.3,281.0 15.8,281.4 26.7,279.6C39.5,277.4 56.6,273.2 61.0,271.0C62.9,270.0 66.1,269.0 68.2,268.6C71.4,268.0 77.3,265.7 101.5,255.3C124.6,245.5 168.7,218.9 193.0,200.1C227.4,173.6 245.4,154.0 257.0,130.3C263.7,116.5 265.4,109.3 265.5,94.5C265.5,82.6 265.3,80.9 262.7,74.5C259.5,66.3 252.8,57.0 246.6,51.9C232.4,40.4 205.6,32.6 186.2,34.4C182.5,34.7 174.8,35.2 169.0,35.3C152.7,35.9 120.7,42.7 102.0,49.7C77.1,58.9 56.2,73.5 51.1,85.1L49.0,89.7L51.2,94.8C52.4,97.6 53.1,100.2 52.8,100.6C50.5,102.8 42.0,92.5 42.0,87.6C42.0,81.1 49.5,71.1 60.4,63.1C67.7,57.7 85.7,47.8 95.8,43.6C104.6,39.9 121.7,34.9 131.5,33.0C134.8,32.4 138.8,31.5 140.5,31.0C142.2,30.5 150.2,29.2 158.5,28.1C173.0,26.2 173.6,26.0 176.0,23.0C179.0,19.4 179.6,19.3 182.7,22.2C184.5,23.8 187.6,24.7 197.5,26.1C217.2,28.9 221.3,29.9 234.5,35.7C250.9,43.0 260.7,52.3 267.9,67.3C272.8,77.7 274.3,85.0 274.2,97.0C274.0,114.3 270.3,126.6 259.5,146.7C255.5,153.9 252.5,157.7 242.6,167.6C228.3,181.8 209.6,197.6 198.6,204.5C194.3,207.3 182.7,214.9 172.7,221.5C136.8,245.2 121.6,254.1 99.1,264.5C80.7,272.9 66.8,278.4 58.5,280.4C55.2,281.2 46.9,283.3 40.0,285.0C26.3,288.5 12.7,289.8 9.5,287.9ZM344.6,227.9C339.3,220.2 349.2,211.3 354.9,218.6C356.1,220.1 357.0,222.0 357.0,223.0C357.0,225.4 352.9,228.9 349.3,229.6C346.8,230.1 345.9,229.8 344.6,227.9ZM1744.8,227.4C1743.9,227.1 1742.0,225.1 1740.4,222.9C1737.9,219.2 1737.8,218.6 1738.8,214.2C1739.4,211.4 1739.5,209.1 1739.0,208.6C1738.4,208.0 1733.5,210.0 1726.3,213.7C1708.5,222.9 1702.5,223.8 1696.0,218.4C1692.2,215.2 1691.1,211.0 1690.8,198.8C1690.6,190.7 1690.3,189.0 1689.0,189.0C1685.4,189.0 1662.6,205.8 1649.4,218.1C1641.5,225.4 1639.1,226.7 1636.0,225.0C1632.2,223.0 1632.5,219.6 1636.9,213.4C1640.8,208.0 1642.0,205.0 1640.2,205.0C1639.8,205.0 1635.5,207.0 1630.6,209.5C1620.6,214.6 1604.1,221.0 1601.1,221.0C1600.0,221.0 1597.2,220.3 1595.0,219.4C1589.0,217.0 1588.0,214.3 1588.0,200.0C1588.0,190.8 1587.7,188.0 1586.7,188.0C1583.2,188.0 1568.9,198.1 1551.5,213.0C1538.4,224.1 1534.9,226.4 1532.0,225.5C1528.0,224.2 1528.6,219.1 1533.5,212.5C1536.6,208.3 1537.5,205.0 1535.7,205.0C1534.9,205.0 1530.2,207.0 1525.3,209.6C1514.3,215.2 1499.1,221.0 1495.1,221.0C1487.8,221.0 1484.0,216.4 1484.0,207.6C1484.0,204.5 1483.8,202.0 1483.5,202.0C1483.2,202.0 1480.2,204.2 1476.7,206.8C1466.7,214.6 1451.7,223.3 1446.3,224.4C1443.6,225.0 1442.6,224.7 1440.5,222.6C1437.3,219.4 1437.3,216.0 1440.7,210.2C1448.2,197.2 1459.6,185.6 1469.9,180.2C1478.1,176.1 1481.9,176.0 1486.1,180.1C1488.9,182.8 1489.8,183.2 1493.5,182.8C1501.0,181.9 1501.4,182.9 1497.5,192.1C1491.5,206.3 1490.9,214.0 1495.6,214.0C1501.3,214.0 1518.2,206.8 1532.6,198.3C1540.9,193.4 1546.0,188.9 1553.7,179.6C1555.7,177.2 1556.5,176.9 1559.2,177.5C1564.6,178.6 1565.3,180.0 1562.9,184.5C1561.7,186.7 1560.5,188.7 1560.1,189.0C1558.0,190.6 1553.1,198.5 1554.0,198.8C1555.3,199.3 1561.3,195.4 1568.6,189.5C1571.5,187.1 1576.8,183.6 1580.3,181.6C1588.3,177.1 1593.0,176.8 1596.6,180.7C1599.9,184.3 1600.5,187.2 1599.1,194.5C1596.8,207.1 1598.0,213.0 1602.7,213.0C1607.4,213.0 1645.9,194.7 1648.7,191.1C1649.5,190.2 1651.7,187.1 1653.7,184.2C1655.7,181.2 1658.4,178.4 1659.7,177.9C1662.2,177.0 1667.7,177.7 1668.6,179.1C1669.5,180.6 1666.1,185.8 1659.9,192.7C1656.6,196.3 1654.1,199.5 1654.4,199.7C1655.1,200.4 1662.1,196.4 1670.0,190.8C1685.3,179.8 1690.7,177.2 1695.5,178.4C1700.5,179.7 1701.5,183.1 1701.5,198.2C1701.5,213.7 1701.9,214.5 1707.9,213.4C1709.8,213.1 1715.4,210.9 1720.4,208.6C1725.4,206.2 1732.0,203.1 1735.1,201.7C1738.2,200.3 1744.4,196.0 1749.0,192.2C1757.7,184.9 1768.9,178.7 1775.3,177.5C1780.1,176.6 1782.8,178.3 1785.8,184.3C1789.1,190.9 1792.7,191.8 1807.9,189.5C1822.6,187.3 1830.5,184.9 1836.9,180.5C1845.0,174.9 1853.1,176.2 1848.3,182.3C1840.6,192.3 1837.9,196.2 1838.2,197.1C1838.4,197.7 1842.8,195.1 1848.0,191.4C1867.1,177.8 1875.0,175.2 1880.1,180.6C1882.3,182.9 1882.5,184.1 1882.8,194.3C1883.1,207.4 1883.4,209.3 1885.6,211.5C1887.5,213.4 1889.5,213.1 1898.5,209.5C1917.7,201.9 1924.5,198.2 1930.8,192.1C1938.8,184.4 1945.9,179.7 1953.8,176.8C1959.9,174.6 1960.1,174.6 1963.5,176.4C1967.4,178.6 1969.4,182.5 1968.4,186.5C1966.8,192.8 1953.9,201.7 1943.5,203.6C1941.3,203.9 1937.8,204.9 1935.7,205.8C1932.3,207.1 1931.9,207.6 1932.2,210.4C1932.4,212.9 1933.3,213.9 1936.7,215.8C1943.0,219.2 1959.6,219.1 1974.6,215.5C1985.5,212.9 1998.4,209.1 2005.0,206.5C2045.1,190.7 2046.0,190.5 2046.0,193.4C2046.0,196.8 2034.4,202.3 2003.0,213.8C1968.0,226.7 1953.2,229.3 1939.2,225.1C1931.2,222.6 1926.3,218.9 1923.9,213.4C1922.8,211.0 1921.6,208.9 1921.2,208.6C1920.8,208.4 1916.4,210.0 1911.5,212.2C1893.1,220.5 1886.5,221.7 1880.2,217.8C1873.9,213.9 1872.3,207.9 1872.0,186.7C1872.0,185.7 1863.5,190.1 1857.8,194.2C1846.6,202.1 1836.9,210.0 1829.3,217.2C1823.4,222.8 1820.4,225.0 1818.6,225.0C1811.1,225.0 1814.0,211.5 1823.9,199.6C1828.3,194.4 1829.0,192.5 1826.2,193.4C1810.9,198.3 1796.1,199.9 1788.7,197.7L1783.9,196.2L1782.8,198.8C1780.2,205.4 1779.1,206.9 1772.4,213.6C1763.1,223.0 1750.8,229.1 1744.8,227.4ZM255.3,223.5C255.0,222.6 256.1,219.1 257.8,215.7C261.2,208.8 265.0,200.3 267.1,195.0C267.8,193.1 269.7,189.2 271.2,186.5C272.8,183.8 275.0,179.6 276.2,177.2C278.6,172.5 281.3,171.3 285.7,172.7C289.6,174.0 289.6,175.9 285.5,181.2C281.6,186.3 281.0,188.6 283.8,187.5C284.7,187.1 288.3,185.7 291.8,184.4C295.3,183.1 299.6,181.2 301.3,180.3C303.4,179.2 307.0,178.6 312.1,178.6C318.5,178.5 320.2,178.9 323.3,181.0C329.7,185.3 329.3,190.8 322.7,188.1C313.2,184.2 312.0,184.0 307.5,185.0C301.5,186.3 287.1,195.7 280.0,202.8C276.9,205.9 271.6,212.2 268.2,216.8C262.8,223.8 261.5,225.0 258.9,225.0C257.2,225.0 255.7,224.4 255.3,223.5ZM878.7,221.0C882.7,219.2 886.9,214.6 885.6,213.3C884.1,211.8 864.9,220.3 864.2,222.9C863.6,224.8 872.9,223.6 878.7,221.0ZM1132.3,216.4C1138.5,213.7 1142.9,211.0 1143.0,209.8C1143.0,208.0 1126.8,212.8 1121.2,216.2C1113.4,220.9 1121.2,221.0 1132.3,216.4ZM1042.3,215.6C1056.4,208.9 1056.2,207.0 1041.8,211.8C1037.2,213.3 1032.0,215.6 1030.4,216.8L1027.5,218.9L1031.3,219.0C1033.6,219.0 1037.9,217.7 1042.3,215.6ZM1754.3,217.4C1758.1,215.4 1765.0,210.0 1769.0,205.7C1774.2,200.1 1773.8,195.4 1768.0,193.0C1765.2,191.9 1764.6,191.9 1762.2,193.7C1758.9,196.1 1749.5,209.4 1748.3,213.5C1746.5,219.1 1748.5,220.3 1754.3,217.4ZM1031.0,209.0C1035.7,206.5 1043.5,203.7 1052.0,201.4C1059.4,199.5 1066.0,197.3 1066.7,196.7C1067.4,196.0 1068.2,193.6 1068.6,191.3C1069.2,187.4 1069.1,187.1 1066.0,185.5C1063.4,184.2 1062.0,184.1 1058.2,184.9C1046.5,187.4 1033.4,196.0 1025.6,206.3C1022.1,210.9 1021.2,213.0 1022.8,213.0C1023.2,213.0 1026.9,211.2 1031.0,209.0ZM1457.9,209.5C1476.9,197.0 1483.8,189.6 1479.7,186.1C1476.8,183.7 1460.3,196.9 1453.2,207.2C1451.4,209.8 1450.0,212.1 1450.0,212.4C1450.0,213.8 1453.0,212.7 1457.9,209.5ZM1948.1,193.5C1953.4,191.6 1959.0,187.4 1959.0,185.3C1959.0,181.7 1947.2,187.4 1943.3,192.9C1941.6,195.4 1942.4,195.5 1948.1,193.5ZM958.5,190.6C963.7,188.2 968.8,183.5 967.7,182.3C966.6,181.3 959.6,184.9 954.9,189.0C949.9,193.5 951.2,194.1 958.5,190.6ZM1213.5,188.1C1217.9,185.1 1219.3,182.0 1216.2,182.0C1214.1,182.0 1202.0,189.8 1202.0,191.2C1202.0,192.8 1209.4,190.9 1213.5,188.1ZM736.7,157.3C733.9,154.6 740.3,145.0 744.8,145.0C747.6,145.0 750.0,147.6 750.0,150.6C750.0,154.6 739.4,160.0 736.7,157.3Z"/></g><rect x="0" y="402" width="2156" height="8" fill="#8A7564"/><g transform="translate(316,531)"><path fill="#8A7564" fill-rule="evenodd" d="M129.5,68.8C121.7,66.1 115.0,57.2 116.4,51.6C117.4,47.4 121.0,48.5 123.5,53.7C126.8,60.4 130.2,62.5 138.2,62.4C144.2,62.4 145.4,62.0 148.8,59.3C151.9,56.8 152.5,55.6 152.8,51.9C153.2,45.8 150.8,43.8 139.0,40.4C126.8,37.0 121.6,33.8 118.8,28.1C116.9,24.1 116.8,23.2 117.9,19.1C119.4,13.5 122.0,10.6 128.5,7.2C134.7,4.1 140.8,3.9 147.1,6.7C154.3,9.9 161.3,18.3 158.7,20.9C156.8,22.8 155.3,22.2 151.0,17.6C144.1,10.2 134.8,9.2 127.6,15.2C122.9,19.0 122.7,23.0 127.0,27.0C130.3,30.1 132.5,31.0 142.3,33.3C151.4,35.5 156.9,39.3 159.9,45.3C162.1,49.7 162.2,50.5 161.0,54.3C159.2,60.3 152.8,66.4 146.1,68.4C140.0,70.2 133.9,70.3 129.5,68.8ZM332.3,68.9C324.0,67.4 317.0,61.7 312.1,52.5C309.8,48.0 309.5,46.4 309.5,37.0C309.5,27.3 309.7,26.1 312.4,21.2C314.0,18.3 317.3,14.2 319.6,12.0C327.4,4.8 341.2,2.8 350.7,7.5C357.1,10.7 365.0,19.0 365.0,22.5C365.0,26.4 362.0,25.6 357.0,20.4C351.4,14.6 345.5,11.9 338.7,11.9C331.7,11.9 328.8,13.1 323.7,18.4C313.1,29.3 314.0,47.7 325.7,57.9C335.1,66.3 346.5,64.1 357.8,51.9C360.3,49.2 362.9,47.0 363.6,47.0C366.0,47.0 365.2,53.1 362.3,57.3C356.2,66.2 343.7,71.0 332.3,68.9ZM456.0,68.8C444.4,67.0 435.4,57.4 432.0,43.2C428.8,29.6 436.6,13.2 448.9,7.7C455.4,4.8 466.3,4.3 473.1,6.5C480.0,8.8 487.0,15.4 490.5,22.8C496.0,34.3 493.8,49.4 485.2,59.1C478.7,66.5 467.0,70.4 456.0,68.8ZM1258.7,68.9C1252.8,67.6 1249.2,65.3 1246.1,60.9C1241.6,54.7 1240.6,46.9 1241.6,25.0L1242.5,6.5L1245.5,6.5L1248.5,6.5L1249.1,28.5C1249.7,52.3 1250.3,55.2 1255.5,60.0C1257.7,62.1 1259.1,62.5 1264.4,62.5C1269.7,62.5 1271.2,62.1 1274.3,59.7C1280.3,55.1 1280.5,54.6 1281.0,29.5L1281.5,6.5L1284.5,6.5C1287.5,6.5 1287.5,6.5 1288.2,13.5C1288.5,17.4 1288.9,27.2 1289.0,35.5C1289.2,47.6 1288.9,51.3 1287.5,54.8C1283.5,64.8 1270.0,71.4 1258.7,68.9ZM4.5,67.8C4.2,67.1 4.1,53.0 4.2,36.5L4.5,6.5L19.0,6.2C35.7,5.9 40.2,7.0 44.3,12.4C51.4,21.6 49.7,32.6 40.2,39.2C35.7,42.3 35.1,42.5 24.2,42.8C11.1,43.3 12.1,42.0 11.7,58.0L11.5,68.5L8.2,68.8C6.2,69.0 4.8,68.6 4.5,67.8ZM232.3,51.8C232.7,42.3 233.0,27.9 233.0,19.8L233.0,5.0L236.0,5.0L239.0,5.0L239.0,37.0L239.0,69.0L235.3,69.0L231.7,69.0L232.3,51.8ZM576.6,68.2C576.3,67.7 576.3,55.6 576.5,41.3C577.0,19.6 576.8,15.1 575.6,14.1C574.8,13.4 570.3,12.6 565.6,12.3C560.4,11.9 556.6,11.2 555.9,10.4C554.5,8.7 555.1,5.5 556.8,5.6C557.4,5.7 568.6,5.8 581.5,5.9C603.9,6.0 605.0,6.1 605.0,7.9C605.0,10.5 600.3,12.0 592.1,12.0C588.5,12.0 584.9,12.4 584.2,12.9C583.2,13.5 583.0,19.5 583.2,41.1L583.5,68.5L580.3,68.8C578.6,69.0 576.9,68.7 576.6,68.2ZM672.7,67.8C672.3,66.5 672.9,9.4 673.4,7.6C673.5,7.0 682.0,6.4 692.4,6.2C712.2,5.8 714.1,6.2 711.9,10.2C711.1,11.7 709.1,12.0 695.2,12.2L679.5,12.5L679.5,22.5L679.5,32.5L694.0,32.5L708.5,32.5L708.8,35.6L709.1,38.8L694.6,39.5C685.3,40.0 680.0,40.6 679.8,41.4C679.6,42.0 679.6,46.9 679.8,52.3L680.1,62.2L695.7,61.9C709.1,61.6 711.4,61.8 712.3,63.1C715.2,67.7 709.5,69.0 685.8,69.0C676.6,69.0 673.0,68.7 672.7,67.8ZM783.7,68.4C783.3,68.0 783.0,53.8 783.0,36.8L783.0,6.0L787.8,5.8C796.7,5.5 810.5,6.1 814.2,7.1C816.2,7.6 819.1,9.5 820.8,11.4C828.3,20.0 827.3,32.2 818.8,36.8C813.6,39.6 811.8,41.8 813.0,43.8C813.6,44.7 815.9,48.2 818.0,51.5C823.4,59.8 828.1,68.3 827.5,68.8C827.3,69.0 825.5,68.9 823.6,68.6C819.5,67.8 816.6,64.1 810.2,51.3C807.9,46.8 805.6,42.9 805.1,42.5C804.5,42.2 801.2,41.7 797.6,41.3L791.1,40.7L790.8,54.6L790.5,68.5L787.5,68.8C785.8,69.0 784.1,68.8 783.7,68.4ZM892.3,67.8C892.7,67.1 896.8,56.8 901.5,45.0C917.9,4.2 918.0,4.0 920.5,4.0C923.1,4.0 926.2,7.6 928.6,13.5C930.0,16.8 933.1,24.7 935.6,31.0C938.1,37.3 940.7,44.1 941.5,46.0C942.3,47.9 944.5,53.7 946.4,58.8C950.1,68.7 949.9,69.6 944.6,68.2C942.1,67.5 941.2,66.2 938.6,60.0L935.5,52.6L921.0,52.5L906.6,52.5L903.5,59.8C901.9,63.8 899.8,67.5 899.0,68.0C896.7,69.5 891.7,69.3 892.3,67.8ZM1016.7,68.4C1015.8,67.5 1015.8,18.4 1016.6,11.2L1017.3,6.0L1030.9,6.0C1046.3,6.0 1050.1,6.8 1054.3,10.7C1058.6,14.8 1060.3,18.8 1060.2,24.6C1060.2,31.1 1058.2,34.9 1053.3,38.3C1047.5,42.3 1044.4,43.1 1033.6,43.7L1023.7,44.3L1024.3,56.2L1024.8,68.0L1022.5,68.0C1021.2,68.0 1019.5,68.2 1018.8,68.5C1018.0,68.8 1017.1,68.7 1016.7,68.4ZM1130.5,68.4C1129.9,68.2 1129.6,57.1 1129.8,37.3L1130.0,6.5L1150.3,6.0C1172.1,5.5 1174.0,5.9 1170.8,10.3C1169.3,12.2 1163.4,12.9 1147.8,13.0L1138.0,13.0L1138.0,23.2L1138.0,33.5L1153.1,33.2L1168.1,32.9L1167.8,35.7L1167.5,38.5L1153.0,39.0L1138.5,39.5L1138.2,50.8L1137.9,62.0L1154.5,62.0L1171.0,62.0L1171.0,64.9C1171.0,67.7 1170.9,67.7 1163.3,68.4C1155.0,69.1 1132.1,69.1 1130.5,68.4ZM1460.0,68.2C1460.0,67.8 1460.4,67.0 1460.9,66.5C1461.9,65.3 1466.6,54.1 1474.9,33.2C1482.1,15.0 1485.5,7.6 1487.5,6.0C1490.9,3.2 1493.9,6.7 1498.5,19.0C1499.3,20.9 1501.5,26.3 1503.5,31.0C1505.5,35.7 1507.9,41.5 1508.7,44.0C1509.6,46.5 1510.6,49.0 1511.0,49.5C1511.4,50.0 1512.5,53.0 1513.5,56.0C1514.5,59.0 1516.1,63.2 1517.2,65.2L1519.0,69.0L1515.5,69.0C1511.7,69.0 1508.0,66.2 1507.9,63.3C1507.9,62.3 1506.9,59.5 1505.7,57.0L1503.5,52.5L1489.0,52.5L1474.6,52.5L1471.4,59.9C1469.7,63.9 1467.6,67.6 1466.9,68.1C1465.1,69.2 1460.0,69.3 1460.0,68.2ZM1374.8,45.9C1375.0,33.7 1374.9,21.4 1374.5,18.5L1373.9,13.3L1364.8,12.6C1359.8,12.2 1355.3,11.7 1354.8,11.4C1354.4,11.1 1354.0,9.8 1354.0,8.4L1354.0,6.0L1378.5,6.0C1402.1,6.0 1403.0,6.1 1403.0,7.9C1403.0,10.9 1401.3,11.5 1391.5,12.0L1382.5,12.5L1382.2,40.2L1382.0,68.0L1378.2,68.0L1374.5,68.0L1374.8,45.9ZM473.1,59.4C477.4,56.9 482.6,50.0 484.0,45.2C485.3,40.3 485.3,33.0 483.8,27.2C482.4,21.4 475.1,13.7 470.1,12.7C464.7,11.6 458.2,11.9 454.6,13.4C450.0,15.3 444.2,21.4 441.9,26.7C438.2,35.3 440.1,48.9 445.8,55.4C452.4,62.7 464.3,64.5 473.1,59.4ZM933.0,45.9C933.0,45.6 930.9,39.8 928.4,32.9C922.1,15.8 920.0,13.0 918.5,19.8C918.2,21.3 916.1,27.2 913.9,33.0C911.6,38.8 909.6,44.2 909.3,45.1C908.9,46.5 910.2,46.7 920.9,46.6C927.6,46.6 933.0,46.2 933.0,45.9ZM1498.1,35.2C1495.9,29.2 1493.2,22.4 1492.0,20.0C1489.9,15.9 1489.7,15.7 1488.4,17.5C1487.6,18.5 1487.0,19.9 1487.0,20.5C1487.0,21.1 1485.0,26.9 1482.5,33.4C1480.0,40.0 1478.0,45.5 1478.0,45.7C1478.0,45.8 1483.4,46.0 1490.0,46.0L1501.9,46.0L1498.1,35.2ZM31.8,35.5C39.7,32.2 42.5,26.5 39.7,19.7C37.2,13.9 34.7,12.9 23.4,13.2L13.5,13.5L13.2,23.9C13.1,29.7 13.2,35.0 13.4,35.7C14.2,37.6 27.1,37.4 31.8,35.5ZM1044.5,34.9C1053.6,31.0 1055.9,23.1 1049.8,16.4C1046.5,12.9 1046.5,12.9 1035.9,12.3L1025.3,11.7L1024.5,18.4C1024.1,22.1 1024.1,27.9 1024.5,31.2L1025.2,37.3L1033.4,36.7C1037.8,36.5 1042.8,35.6 1044.5,34.9ZM814.4,31.9L819.2,28.9L818.8,23.8C818.0,16.3 814.6,13.5 805.3,12.6C797.9,11.9 793.0,12.5 791.8,14.4C790.4,16.4 790.9,33.8 792.2,34.3C792.9,34.6 797.1,34.9 801.6,34.9C808.9,35.0 810.0,34.7 814.4,31.9Z"/></g></svg>